<?xml version="1.0" encoding="UTF-8"?>
<svg id="_レイヤー_1" data-name="レイヤー 1" xmlns="http://www.w3.org/2000/svg" viewBox="0 0 580.12 750.24">
  <defs>
    <style>
      .cls-1 {
        fill: #fff;
      }

      .cls-2 {
        fill: #3ca238;
        stroke: #9ebe3d;
        stroke-linecap: round;
        stroke-miterlimit: 10;
        stroke-width: 14px;
      }

      .cls-3 {
        fill: #9ebe3d;
      }
    </style>
  </defs>
  <path class="cls-3" d="M486.45,195.45C434.09-12.1,145.06-11.24,93.67,196.49l392.78-1.04Z"/>
  <rect class="cls-3" x="93.67" y="207.2" width="392.78" height="425.75"/>
  <ellipse class="cls-1" cx="185.31" cy="125.89" rx="13.24" ry="14.35"/>
  <ellipse class="cls-1" cx="391.14" cy="125.89" rx="13.24" ry="14.35"/>
  <rect class="cls-3" x="0" y="207.2" width="81.02" height="293.04" rx="40.51" ry="40.51"/>
  <rect class="cls-3" x="499.1" y="207.2" width="81.02" height="293.04" rx="40.51" ry="40.51"/>
  <g>
    <path class="cls-3" d="M200.78,457.2h0c-22.37,0-40.51,19.66-40.51,43.91v205.22c0,24.25,18.14,43.91,40.51,43.91h0c22.37,0,40.51-19.66,40.51-43.91v-205.22c0-24.25-18.14-43.91-40.51-43.91Z"/>
    <path class="cls-3" d="M379.34,457.2h0c-22.37,0-40.51,19.66-40.51,43.91v205.22c0,24.25,18.14,43.91,40.51,43.91h0c22.37,0,40.51-19.66,40.51-43.91v-205.22c0-24.25-18.14-43.91-40.51-43.91Z"/>
  </g>
  <line class="cls-2" x1="148.41" y1="10.68" x2="212.59" y2="104.59"/>
  <line class="cls-2" x1="303.64" y1="365.46" x2="367.82" y2="459.37"/>
  <line class="cls-2" x1="447.25" y1="7" x2="377.9" y2="96.49"/>
</svg>