<svg width="311" height="320" viewBox="0 0 311 320" fill="none" xmlns="http://www.w3.org/2000/svg">
<g clip-path="url(#clip0_268_54)">
<path d="M160 40C177.202 40 194.203 43.6983 209.85 50.8442C225.497 57.99 239.425 68.4165 250.69 81.4167L214.414 112.85C207.655 105.05 199.298 98.794 189.91 94.5065C180.522 90.219 170.321 88 160 88L160 40Z" fill="#FF8CF6"/>
<path d="M215.477 19.4697V29.6515H213.324V21.513H213.264L210.933 22.9746V21.0656L213.453 19.4697H215.477ZM221.615 29.7907C220.913 29.7907 220.286 29.6614 219.736 29.4029C219.189 29.1444 218.755 28.7881 218.434 28.334C218.112 27.8799 217.945 27.3596 217.931 26.7729H220.019C220.043 27.1674 220.208 27.4872 220.517 27.7325C220.825 27.9777 221.191 28.1004 221.615 28.1004C221.953 28.1004 222.252 28.0258 222.51 27.8766C222.772 27.7242 222.976 27.5137 223.122 27.2452C223.271 26.9735 223.345 26.6619 223.345 26.3106C223.345 25.9526 223.269 25.6378 223.117 25.366C222.968 25.0942 222.76 24.8821 222.495 24.7296C222.23 24.5772 221.927 24.4993 221.585 24.4959C221.287 24.4959 220.997 24.5573 220.715 24.6799C220.437 24.8025 220.22 24.9699 220.064 25.182L218.15 24.839L218.632 19.4697H224.857V21.2296H220.407L220.144 23.78H220.203C220.382 23.5281 220.652 23.3193 221.014 23.1536C221.375 22.9879 221.779 22.905 222.227 22.905C222.84 22.905 223.387 23.0492 223.867 23.3376C224.348 23.6259 224.728 24.022 225.006 24.5258C225.284 25.0263 225.422 25.603 225.419 26.2559C225.422 26.942 225.263 27.5518 224.941 28.0854C224.623 28.6157 224.177 29.0334 223.604 29.3383C223.034 29.6399 222.371 29.7907 221.615 29.7907Z" fill="#323232"/>
<path d="M205.536 37.9242V46.6515H204.479V39.0322H204.428L202.297 40.4469V39.3731L204.479 37.9242H205.536ZM210.995 46.7708C210.432 46.7708 209.931 46.6742 209.491 46.481C209.053 46.2879 208.705 46.0194 208.447 45.6756C208.191 45.329 208.052 44.9271 208.029 44.4697H209.103C209.126 44.7509 209.222 44.9938 209.393 45.1984C209.563 45.4001 209.786 45.5563 210.062 45.6671C210.337 45.7779 210.643 45.8333 210.978 45.8333C211.353 45.8333 211.685 45.768 211.975 45.6373C212.265 45.5066 212.492 45.3248 212.657 45.0918C212.822 44.8589 212.904 44.589 212.904 44.2822C212.904 43.9611 212.824 43.6785 212.665 43.4342C212.506 43.187 212.273 42.9938 211.966 42.8546C211.66 42.7154 211.285 42.6458 210.841 42.6458H210.143V41.7083H210.841C211.188 41.7083 211.492 41.6458 211.753 41.5208C212.018 41.3958 212.224 41.2197 212.371 40.9924C212.522 40.7651 212.597 40.4981 212.597 40.1913C212.597 39.8958 212.532 39.6387 212.401 39.42C212.27 39.2012 212.086 39.0308 211.847 38.9086C211.611 38.7864 211.333 38.7254 211.012 38.7254C210.711 38.7254 210.427 38.7808 210.16 38.8915C209.895 38.9995 209.68 39.1572 209.512 39.3646C209.344 39.5691 209.253 39.8163 209.239 40.106H208.216C208.233 39.6486 208.371 39.2481 208.63 38.9043C208.888 38.5577 209.226 38.2879 209.644 38.0947C210.064 37.9015 210.526 37.8049 211.029 37.8049C211.569 37.8049 212.032 37.9143 212.418 38.133C212.805 38.3489 213.101 38.6344 213.309 38.9896C213.516 39.3447 213.62 39.7282 213.62 40.1401C213.62 40.6316 213.491 41.0506 213.232 41.3972C212.976 41.7438 212.628 41.9839 212.188 42.1174V42.1856C212.739 42.2765 213.17 42.5109 213.479 42.8887C213.789 43.2637 213.944 43.7282 213.944 44.2822C213.944 44.7566 213.814 45.1827 213.556 45.5606C213.3 45.9356 212.951 46.231 212.508 46.4469C212.064 46.6629 211.56 46.7708 210.995 46.7708ZM216.167 46.7197C215.957 46.7197 215.776 46.6444 215.626 46.4938C215.475 46.3433 215.4 46.1629 215.4 45.9526C215.4 45.7424 215.475 45.562 215.626 45.4114C215.776 45.2609 215.957 45.1856 216.167 45.1856C216.377 45.1856 216.558 45.2609 216.708 45.4114C216.859 45.562 216.934 45.7424 216.934 45.9526C216.934 46.0918 216.899 46.2197 216.828 46.3361C216.759 46.4526 216.667 46.5464 216.551 46.6174C216.437 46.6856 216.309 46.7197 216.167 46.7197ZM221.315 46.7708C220.957 46.7651 220.599 46.6969 220.241 46.5663C219.883 46.4356 219.556 46.2154 219.261 45.9058C218.965 45.5933 218.728 45.1714 218.549 44.6401C218.37 44.106 218.281 43.4356 218.281 42.6288C218.281 41.856 218.353 41.1714 218.498 40.5748C218.643 39.9754 218.853 39.4711 219.129 39.062C219.404 38.6501 219.737 38.3376 220.126 38.1245C220.518 37.9114 220.96 37.8049 221.451 37.8049C221.94 37.8049 222.374 37.9029 222.755 38.0989C223.139 38.2921 223.451 38.562 223.693 38.9086C223.934 39.2552 224.09 39.6543 224.161 40.106H223.122C223.025 39.714 222.838 39.3887 222.559 39.1302C222.281 38.8717 221.911 38.7424 221.451 38.7424C220.775 38.7424 220.242 39.0364 219.853 39.6245C219.467 40.2126 219.272 41.0379 219.269 42.1004H219.338C219.497 41.8589 219.686 41.6529 219.904 41.4825C220.126 41.3092 220.37 41.1756 220.637 41.0819C220.904 40.9881 221.187 40.9413 221.485 40.9413C221.985 40.9413 222.443 41.0663 222.857 41.3163C223.272 41.5634 223.605 41.9058 223.855 42.3433C224.105 42.7779 224.23 43.2765 224.23 43.839C224.23 44.3788 224.109 44.8731 223.867 45.3219C223.626 45.768 223.286 46.1231 222.849 46.3873C222.414 46.6486 221.903 46.7765 221.315 46.7708ZM221.315 45.8333C221.673 45.8333 221.994 45.7438 222.278 45.5648C222.565 45.3859 222.791 45.1458 222.955 44.8447C223.123 44.5435 223.207 44.2083 223.207 43.839C223.207 43.4782 223.126 43.1501 222.964 42.8546C222.805 42.5563 222.585 42.3191 222.303 42.143C222.025 41.9668 221.707 41.8788 221.349 41.8788C221.079 41.8788 220.828 41.9327 220.595 42.0407C220.362 42.1458 220.157 42.2907 219.981 42.4754C219.808 42.66 219.671 42.8717 219.572 43.1103C219.472 43.3461 219.423 43.5947 219.423 43.856C219.423 44.2026 219.504 44.5265 219.666 44.8276C219.83 45.1288 220.055 45.3717 220.339 45.5563C220.626 45.741 220.951 45.8333 221.315 45.8333ZM230.354 45.0151V44.5549C230.354 44.2367 230.42 43.9455 230.55 43.6813C230.684 43.4143 230.877 43.2012 231.13 43.0421C231.385 42.8802 231.695 42.7992 232.059 42.7992C232.428 42.7992 232.738 42.8802 232.988 43.0421C233.238 43.2012 233.427 43.4143 233.555 43.6813C233.682 43.9455 233.746 44.2367 233.746 44.5549V45.0151C233.746 45.3333 233.681 45.6259 233.55 45.893C233.422 46.1572 233.232 46.3702 232.979 46.5322C232.729 46.6913 232.422 46.7708 232.059 46.7708C231.689 46.7708 231.378 46.6913 231.126 46.5322C230.873 46.3702 230.681 46.1572 230.55 45.893C230.42 45.6259 230.354 45.3333 230.354 45.0151ZM231.224 44.5549V45.0151C231.224 45.2793 231.286 45.5165 231.411 45.7268C231.536 45.9342 231.752 46.0379 232.059 46.0379C232.357 46.0379 232.567 45.9342 232.689 45.7268C232.814 45.5165 232.877 45.2793 232.877 45.0151V44.5549C232.877 44.2907 232.817 44.0549 232.698 43.8475C232.579 43.6373 232.366 43.5322 232.059 43.5322C231.76 43.5322 231.546 43.6373 231.415 43.8475C231.287 44.0549 231.224 44.2907 231.224 44.5549ZM226.008 40.0208V39.5606C226.008 39.2424 226.073 38.9512 226.204 38.687C226.337 38.42 226.53 38.2069 226.783 38.0478C227.039 37.8859 227.349 37.8049 227.712 37.8049C228.081 37.8049 228.391 37.8859 228.641 38.0478C228.891 38.2069 229.08 38.42 229.208 38.687C229.336 38.9512 229.4 39.2424 229.4 39.5606V40.0208C229.4 40.339 229.334 40.6316 229.204 40.8986C229.076 41.1629 228.885 41.3759 228.633 41.5379C228.383 41.6969 228.076 41.7765 227.712 41.7765C227.343 41.7765 227.032 41.6969 226.779 41.5379C226.526 41.3759 226.334 41.1629 226.204 40.8986C226.073 40.6316 226.008 40.339 226.008 40.0208ZM226.877 39.5606V40.0208C226.877 40.285 226.939 40.5222 227.064 40.7325C227.189 40.9398 227.405 41.0435 227.712 41.0435C228.01 41.0435 228.221 40.9398 228.343 40.7325C228.468 40.5222 228.53 40.285 228.53 40.0208V39.5606C228.53 39.2964 228.471 39.0606 228.351 38.8532C228.232 38.643 228.019 38.5379 227.712 38.5379C227.414 38.5379 227.199 38.643 227.069 38.8532C226.941 39.0606 226.877 39.2964 226.877 39.5606ZM226.331 46.6515L232.331 37.9242H233.303L227.303 46.6515H226.331Z" fill="#3F8AE2"/>
<path d="M250.69 81.4167C263.85 96.6047 272.986 114.855 277.258 134.492C281.529 154.13 280.801 174.525 275.139 193.808C269.477 213.091 259.063 230.642 244.853 244.853C230.642 259.063 213.09 269.477 193.808 275.139L180.285 229.083C191.854 225.686 202.385 219.438 210.912 210.912C219.438 202.385 225.686 191.854 229.083 180.285C232.481 168.715 232.918 156.478 230.355 144.695C227.791 132.913 222.31 121.963 214.414 112.85L250.69 81.4167Z" fill="#FF8C8C"/>
<path d="M289.792 196.582C289.049 196.582 288.388 196.454 287.808 196.199C287.232 195.94 286.776 195.586 286.441 195.135C286.11 194.681 285.939 194.157 285.929 193.564H288.097C288.11 193.813 288.191 194.031 288.34 194.22C288.493 194.406 288.695 194.55 288.947 194.653C289.199 194.755 289.482 194.807 289.797 194.807C290.125 194.807 290.415 194.749 290.667 194.633C290.919 194.517 291.116 194.356 291.259 194.151C291.401 193.945 291.472 193.708 291.472 193.44C291.472 193.168 291.396 192.928 291.244 192.719C291.094 192.507 290.879 192.341 290.597 192.222C290.319 192.102 289.987 192.043 289.603 192.043H288.653V190.462H289.603C289.928 190.462 290.214 190.405 290.463 190.293C290.715 190.18 290.911 190.024 291.05 189.825C291.189 189.623 291.259 189.388 291.259 189.119C291.259 188.864 291.197 188.64 291.075 188.448C290.955 188.253 290.786 188.1 290.567 187.991C290.352 187.881 290.1 187.827 289.812 187.827C289.52 187.827 289.253 187.88 289.011 187.986C288.769 188.089 288.576 188.236 288.43 188.428C288.284 188.621 288.206 188.846 288.196 189.104H286.133C286.143 188.518 286.31 188.001 286.635 187.553C286.96 187.106 287.397 186.756 287.947 186.504C288.501 186.249 289.126 186.121 289.822 186.121C290.524 186.121 291.139 186.249 291.666 186.504C292.193 186.76 292.603 187.104 292.894 187.538C293.189 187.969 293.335 188.453 293.332 188.99C293.335 189.56 293.158 190.036 292.8 190.417C292.445 190.798 291.983 191.04 291.413 191.143V191.222C292.162 191.318 292.732 191.579 293.123 192.003C293.517 192.424 293.713 192.951 293.71 193.584C293.713 194.164 293.545 194.679 293.207 195.13C292.873 195.581 292.41 195.935 291.82 196.194C291.23 196.452 290.554 196.582 289.792 196.582ZM298.976 196.582C298.273 196.582 297.647 196.452 297.096 196.194C296.55 195.935 296.115 195.579 295.794 195.125C295.472 194.671 295.305 194.151 295.292 193.564H297.38C297.403 193.958 297.569 194.278 297.877 194.523C298.185 194.769 298.551 194.891 298.976 194.891C299.314 194.891 299.612 194.817 299.871 194.668C300.132 194.515 300.336 194.305 300.482 194.036C300.631 193.764 300.706 193.453 300.706 193.102C300.706 192.744 300.63 192.429 300.477 192.157C300.328 191.885 300.121 191.673 299.856 191.521C299.59 191.368 299.287 191.29 298.946 191.287C298.648 191.287 298.358 191.348 298.076 191.471C297.797 191.594 297.58 191.761 297.425 191.973L295.51 191.63L295.993 186.261H302.217V188.021H297.768L297.504 190.571H297.564C297.743 190.319 298.013 190.11 298.374 189.945C298.735 189.779 299.14 189.696 299.587 189.696C300.2 189.696 300.747 189.84 301.228 190.129C301.708 190.417 302.088 190.813 302.366 191.317C302.645 191.817 302.782 192.394 302.779 193.047C302.782 193.733 302.623 194.343 302.302 194.876C301.983 195.407 301.538 195.824 300.964 196.129C300.394 196.431 299.731 196.582 298.976 196.582Z" fill="#323232"/>
<path d="M281.74 213.562C281.177 213.562 280.676 213.465 280.236 213.272C279.798 213.079 279.45 212.81 279.192 212.467C278.936 212.12 278.797 211.718 278.774 211.261H279.848C279.871 211.542 279.967 211.785 280.138 211.989C280.308 212.191 280.531 212.347 280.807 212.458C281.082 212.569 281.388 212.624 281.723 212.624C282.098 212.624 282.43 212.559 282.72 212.428C283.01 212.298 283.237 212.116 283.402 211.883C283.567 211.65 283.649 211.38 283.649 211.073C283.649 210.752 283.57 210.469 283.41 210.225C283.251 209.978 283.018 209.785 282.712 209.646C282.405 209.506 282.03 209.437 281.587 209.437H280.888V208.499H281.587C281.933 208.499 282.237 208.437 282.498 208.312C282.763 208.187 282.969 208.011 283.116 207.783C283.267 207.556 283.342 207.289 283.342 206.982C283.342 206.687 283.277 206.43 283.146 206.211C283.016 205.992 282.831 205.822 282.592 205.7C282.356 205.577 282.078 205.516 281.757 205.516C281.456 205.516 281.172 205.572 280.905 205.683C280.641 205.791 280.425 205.948 280.257 206.156C280.089 206.36 279.998 206.607 279.984 206.897H278.962C278.979 206.44 279.116 206.039 279.375 205.695C279.633 205.349 279.972 205.079 280.389 204.886C280.81 204.693 281.271 204.596 281.774 204.596C282.314 204.596 282.777 204.705 283.163 204.924C283.55 205.14 283.847 205.425 284.054 205.781C284.261 206.136 284.365 206.519 284.365 206.931C284.365 207.423 284.236 207.842 283.977 208.188C283.722 208.535 283.373 208.775 282.933 208.908V208.977C283.484 209.068 283.915 209.302 284.224 209.68C284.534 210.055 284.689 210.519 284.689 211.073C284.689 211.548 284.56 211.974 284.301 212.352C284.045 212.727 283.696 213.022 283.253 213.238C282.81 213.454 282.305 213.562 281.74 213.562ZM289.5 204.715V213.443H288.443V205.823H288.392L286.261 207.238V206.164L288.443 204.715H289.5ZM292.244 213.511C292.034 213.511 291.854 213.435 291.703 213.285C291.552 213.134 291.477 212.954 291.477 212.744C291.477 212.533 291.552 212.353 291.703 212.202C291.854 212.052 292.034 211.977 292.244 211.977C292.454 211.977 292.635 212.052 292.785 212.202C292.936 212.353 293.011 212.533 293.011 212.744C293.011 212.883 292.976 213.011 292.905 213.127C292.837 213.244 292.744 213.337 292.628 213.408C292.514 213.477 292.386 213.511 292.244 213.511ZM297.325 213.562C296.74 213.562 296.223 213.458 295.774 213.251C295.328 213.041 294.98 212.752 294.73 212.386C294.48 212.016 294.356 211.596 294.359 211.124C294.356 210.755 294.429 210.414 294.576 210.102C294.724 209.786 294.926 209.523 295.181 209.313C295.44 209.1 295.728 208.965 296.046 208.908V208.857C295.629 208.749 295.296 208.515 295.049 208.154C294.802 207.791 294.68 207.377 294.683 206.914C294.68 206.471 294.792 206.075 295.019 205.725C295.247 205.376 295.559 205.1 295.957 204.898C296.358 204.697 296.813 204.596 297.325 204.596C297.831 204.596 298.282 204.697 298.68 204.898C299.078 205.1 299.39 205.376 299.617 205.725C299.848 206.075 299.964 206.471 299.967 206.914C299.964 207.377 299.838 207.791 299.588 208.154C299.34 208.515 299.012 208.749 298.603 208.857V208.908C298.919 208.965 299.203 209.1 299.456 209.313C299.708 209.523 299.91 209.786 300.061 210.102C300.211 210.414 300.288 210.755 300.291 211.124C300.288 211.596 300.16 212.016 299.907 212.386C299.657 212.752 299.309 213.041 298.863 213.251C298.42 213.458 297.907 213.562 297.325 213.562ZM297.325 212.624C297.72 212.624 298.061 212.56 298.348 212.433C298.634 212.305 298.856 212.124 299.012 211.891C299.169 211.658 299.248 211.386 299.251 211.073C299.248 210.744 299.163 210.452 298.995 210.2C298.828 209.947 298.599 209.748 298.309 209.603C298.022 209.458 297.694 209.386 297.325 209.386C296.953 209.386 296.62 209.458 296.328 209.603C296.038 209.748 295.809 209.947 295.642 210.2C295.477 210.452 295.396 210.744 295.399 211.073C295.396 211.386 295.471 211.658 295.625 211.891C295.781 212.124 296.004 212.305 296.294 212.433C296.583 212.56 296.927 212.624 297.325 212.624ZM297.325 208.482C297.637 208.482 297.914 208.42 298.156 208.295C298.4 208.17 298.592 207.995 298.731 207.771C298.87 207.546 298.941 207.283 298.944 206.982C298.941 206.687 298.872 206.43 298.735 206.211C298.599 205.989 298.41 205.819 298.169 205.7C297.927 205.577 297.646 205.516 297.325 205.516C296.998 205.516 296.713 205.577 296.468 205.7C296.224 205.819 296.035 205.989 295.902 206.211C295.768 206.43 295.703 206.687 295.706 206.982C295.703 207.283 295.769 207.546 295.906 207.771C296.045 207.995 296.237 208.17 296.481 208.295C296.725 208.42 297.007 208.482 297.325 208.482ZM306.373 211.806V211.346C306.373 211.028 306.438 210.737 306.569 210.472C306.702 210.205 306.896 209.992 307.148 209.833C307.404 209.671 307.714 209.59 308.077 209.59C308.447 209.59 308.756 209.671 309.006 209.833C309.256 209.992 309.445 210.205 309.573 210.472C309.701 210.737 309.765 211.028 309.765 211.346V211.806C309.765 212.124 309.699 212.417 309.569 212.684C309.441 212.948 309.251 213.161 308.998 213.323C308.748 213.482 308.441 213.562 308.077 213.562C307.708 213.562 307.397 213.482 307.144 213.323C306.891 213.161 306.699 212.948 306.569 212.684C306.438 212.417 306.373 212.124 306.373 211.806ZM307.242 211.346V211.806C307.242 212.07 307.305 212.308 307.43 212.518C307.555 212.725 307.771 212.829 308.077 212.829C308.376 212.829 308.586 212.725 308.708 212.518C308.833 212.308 308.896 212.07 308.896 211.806V211.346C308.896 211.082 308.836 210.846 308.717 210.639C308.597 210.428 308.384 210.323 308.077 210.323C307.779 210.323 307.565 210.428 307.434 210.639C307.306 210.846 307.242 211.082 307.242 211.346ZM302.026 206.812V206.352C302.026 206.033 302.092 205.742 302.222 205.478C302.356 205.211 302.549 204.998 302.802 204.839C303.057 204.677 303.367 204.596 303.731 204.596C304.1 204.596 304.41 204.677 304.66 204.839C304.91 204.998 305.099 205.211 305.226 205.478C305.354 205.742 305.418 206.033 305.418 206.352V206.812C305.418 207.13 305.353 207.423 305.222 207.69C305.094 207.954 304.904 208.167 304.651 208.329C304.401 208.488 304.094 208.568 303.731 208.568C303.361 208.568 303.05 208.488 302.797 208.329C302.545 208.167 302.353 207.954 302.222 207.69C302.092 207.423 302.026 207.13 302.026 206.812ZM302.896 206.352V206.812C302.896 207.076 302.958 207.313 303.083 207.523C303.208 207.731 303.424 207.835 303.731 207.835C304.029 207.835 304.239 207.731 304.361 207.523C304.486 207.313 304.549 207.076 304.549 206.812V206.352C304.549 206.087 304.489 205.852 304.37 205.644C304.251 205.434 304.038 205.329 303.731 205.329C303.432 205.329 303.218 205.434 303.087 205.644C302.959 205.852 302.896 206.087 302.896 206.352ZM302.35 213.443L308.35 204.715H309.322L303.322 213.443H302.35Z" fill="#3F8AE2"/>
<path d="M193.808 275.139C171.735 281.62 148.265 281.62 126.192 275.139C104.119 268.658 84.3748 255.969 69.31 238.583L105.586 207.15C114.625 217.581 126.472 225.195 139.715 229.083C152.959 232.972 167.041 232.972 180.285 229.083L193.808 275.139Z" fill="#FFFA8C"/>
<path d="M112.154 291.329V289.778L115.778 286.422C116.087 286.124 116.345 285.855 116.554 285.617C116.766 285.378 116.927 285.144 117.036 284.916C117.146 284.684 117.2 284.433 117.2 284.165C117.2 283.867 117.132 283.61 116.996 283.394C116.861 283.176 116.675 283.008 116.44 282.892C116.204 282.773 115.938 282.713 115.639 282.713C115.328 282.713 115.056 282.776 114.824 282.902C114.592 283.028 114.413 283.209 114.287 283.444C114.161 283.679 114.098 283.959 114.098 284.284H112.055C112.055 283.618 112.206 283.04 112.507 282.549C112.809 282.059 113.231 281.679 113.775 281.411C114.318 281.142 114.945 281.008 115.654 281.008C116.383 281.008 117.018 281.137 117.558 281.396C118.102 281.651 118.524 282.006 118.826 282.46C119.128 282.914 119.278 283.434 119.278 284.021C119.278 284.405 119.202 284.785 119.05 285.159C118.901 285.534 118.634 285.95 118.249 286.407C117.865 286.861 117.323 287.406 116.624 288.043L115.137 289.499V289.569H119.413V291.329H112.154ZM124.965 291.553C124.11 291.549 123.374 291.339 122.757 290.921C122.144 290.504 121.672 289.899 121.34 289.107C121.012 288.315 120.85 287.362 120.853 286.248C120.853 285.138 121.017 284.191 121.345 283.409C121.677 282.627 122.149 282.032 122.762 281.624C123.379 281.213 124.113 281.008 124.965 281.008C125.816 281.008 126.549 281.213 127.162 281.624C127.779 282.035 128.253 282.632 128.584 283.414C128.915 284.193 129.08 285.138 129.076 286.248C129.076 287.365 128.91 288.32 128.579 289.112C128.251 289.904 127.78 290.509 127.167 290.926C126.554 291.344 125.82 291.553 124.965 291.553ZM124.965 289.768C125.548 289.768 126.014 289.475 126.362 288.888C126.71 288.301 126.882 287.421 126.879 286.248C126.879 285.476 126.799 284.833 126.64 284.319C126.484 283.805 126.262 283.419 125.974 283.161C125.689 282.902 125.352 282.773 124.965 282.773C124.385 282.773 123.921 283.063 123.573 283.643C123.225 284.223 123.049 285.091 123.046 286.248C123.046 287.03 123.124 287.683 123.279 288.207C123.438 288.727 123.662 289.118 123.95 289.38C124.239 289.639 124.577 289.768 124.965 289.768Z" fill="#323232"/>
<path d="M108.017 299.602V308.329H106.96V300.71H106.909L104.779 302.124V301.051L106.96 299.602H108.017ZM113.323 308.448C112.737 308.448 112.22 308.345 111.772 308.137C111.325 307.927 110.977 307.639 110.727 307.272C110.477 306.903 110.354 306.482 110.357 306.011C110.354 305.641 110.426 305.301 110.574 304.988C110.722 304.673 110.923 304.41 111.179 304.2C111.438 303.987 111.726 303.852 112.044 303.795V303.744C111.627 303.636 111.294 303.401 111.047 303.041C110.8 302.677 110.678 302.264 110.681 301.801C110.678 301.357 110.79 300.961 111.017 300.612C111.245 300.262 111.557 299.987 111.955 299.785C112.355 299.583 112.811 299.482 113.323 299.482C113.828 299.482 114.28 299.583 114.678 299.785C115.075 299.987 115.388 300.262 115.615 300.612C115.845 300.961 115.962 301.357 115.965 301.801C115.962 302.264 115.835 302.677 115.585 303.041C115.338 303.401 115.01 303.636 114.601 303.744V303.795C114.916 303.852 115.2 303.987 115.453 304.2C115.706 304.41 115.908 304.673 116.058 304.988C116.209 305.301 116.286 305.641 116.289 306.011C116.286 306.482 116.158 306.903 115.905 307.272C115.655 307.639 115.307 307.927 114.861 308.137C114.418 308.345 113.905 308.448 113.323 308.448ZM113.323 307.511C113.718 307.511 114.058 307.447 114.345 307.319C114.632 307.191 114.854 307.011 115.01 306.778C115.166 306.545 115.246 306.272 115.249 305.96C115.246 305.63 115.161 305.339 114.993 305.086C114.825 304.833 114.597 304.634 114.307 304.489C114.02 304.345 113.692 304.272 113.323 304.272C112.95 304.272 112.618 304.345 112.325 304.489C112.036 304.634 111.807 304.833 111.639 305.086C111.475 305.339 111.394 305.63 111.397 305.96C111.394 306.272 111.469 306.545 111.622 306.778C111.779 307.011 112.002 307.191 112.291 307.319C112.581 307.447 112.925 307.511 113.323 307.511ZM113.323 303.369C113.635 303.369 113.912 303.306 114.154 303.181C114.398 303.056 114.59 302.882 114.729 302.657C114.868 302.433 114.939 302.17 114.942 301.869C114.939 301.573 114.87 301.316 114.733 301.097C114.597 300.876 114.408 300.705 114.166 300.586C113.925 300.464 113.644 300.403 113.323 300.403C112.996 300.403 112.71 300.464 112.466 300.586C112.222 300.705 112.033 300.876 111.899 301.097C111.766 301.316 111.7 301.573 111.703 301.869C111.7 302.17 111.767 302.433 111.904 302.657C112.043 302.882 112.235 303.056 112.479 303.181C112.723 303.306 113.004 303.369 113.323 303.369ZM118.402 308.397C118.192 308.397 118.012 308.322 117.861 308.171C117.71 308.021 117.635 307.84 117.635 307.63C117.635 307.42 117.71 307.239 117.861 307.089C118.012 306.938 118.192 306.863 118.402 306.863C118.612 306.863 118.793 306.938 118.943 307.089C119.094 307.239 119.169 307.42 119.169 307.63C119.169 307.769 119.134 307.897 119.063 308.014C118.995 308.13 118.902 308.224 118.786 308.295C118.672 308.363 118.544 308.397 118.402 308.397ZM120.957 308.329V307.562L123.838 304.409C124.176 304.039 124.454 303.718 124.673 303.445C124.892 303.17 125.053 302.911 125.159 302.67C125.267 302.426 125.321 302.17 125.321 301.903C125.321 301.596 125.247 301.33 125.099 301.106C124.954 300.882 124.755 300.708 124.502 300.586C124.249 300.464 123.965 300.403 123.65 300.403C123.315 300.403 123.022 300.472 122.772 300.612C122.525 300.748 122.333 300.94 122.197 301.187C122.063 301.434 121.997 301.724 121.997 302.056H120.991C120.991 301.545 121.109 301.096 121.345 300.71C121.58 300.323 121.901 300.022 122.308 299.806C122.717 299.59 123.176 299.482 123.684 299.482C124.196 299.482 124.649 299.59 125.044 299.806C125.438 300.022 125.748 300.313 125.973 300.68C126.197 301.046 126.309 301.454 126.309 301.903C126.309 302.224 126.251 302.538 126.134 302.845C126.021 303.149 125.822 303.488 125.538 303.863C125.257 304.235 124.866 304.69 124.366 305.227L122.406 307.323V307.391H126.463V308.329H120.957ZM132.671 306.693V306.232C132.671 305.914 132.737 305.623 132.867 305.359C133.001 305.092 133.194 304.879 133.447 304.72C133.703 304.558 134.012 304.477 134.376 304.477C134.745 304.477 135.055 304.558 135.305 304.72C135.555 304.879 135.744 305.092 135.872 305.359C135.999 305.623 136.063 305.914 136.063 306.232V306.693C136.063 307.011 135.998 307.303 135.867 307.57C135.74 307.835 135.549 308.048 135.296 308.21C135.046 308.369 134.74 308.448 134.376 308.448C134.007 308.448 133.696 308.369 133.443 308.21C133.19 308.048 132.998 307.835 132.867 307.57C132.737 307.303 132.671 307.011 132.671 306.693ZM133.541 306.232V306.693C133.541 306.957 133.603 307.194 133.728 307.404C133.853 307.612 134.069 307.715 134.376 307.715C134.674 307.715 134.884 307.612 135.007 307.404C135.132 307.194 135.194 306.957 135.194 306.693V306.232C135.194 305.968 135.134 305.732 135.015 305.525C134.896 305.315 134.683 305.21 134.376 305.21C134.078 305.21 133.863 305.315 133.732 305.525C133.605 305.732 133.541 305.968 133.541 306.232ZM128.325 301.698V301.238C128.325 300.92 128.39 300.629 128.521 300.364C128.654 300.097 128.848 299.884 129.1 299.725C129.356 299.563 129.666 299.482 130.029 299.482C130.399 299.482 130.708 299.563 130.958 299.725C131.208 299.884 131.397 300.097 131.525 300.364C131.653 300.629 131.717 300.92 131.717 301.238V301.698C131.717 302.016 131.651 302.309 131.521 302.576C131.393 302.84 131.203 303.053 130.95 303.215C130.7 303.374 130.393 303.454 130.029 303.454C129.66 303.454 129.349 303.374 129.096 303.215C128.843 303.053 128.651 302.84 128.521 302.576C128.39 302.309 128.325 302.016 128.325 301.698ZM129.194 301.238V301.698C129.194 301.963 129.257 302.2 129.382 302.41C129.507 302.617 129.723 302.721 130.029 302.721C130.328 302.721 130.538 302.617 130.66 302.41C130.785 302.2 130.848 301.963 130.848 301.698V301.238C130.848 300.974 130.788 300.738 130.669 300.531C130.549 300.32 130.336 300.215 130.029 300.215C129.731 300.215 129.517 300.32 129.386 300.531C129.258 300.738 129.194 300.974 129.194 301.238ZM128.649 308.329L134.649 299.602H135.62L129.62 308.329H128.649Z" fill="#3F8AE2"/>
<path d="M69.31 238.583C54.2453 221.198 44.4953 199.848 41.2214 177.078C37.9475 154.307 41.2877 131.076 50.8442 110.15C60.4006 89.2245 75.7705 71.4868 95.1231 59.0496C114.476 46.6124 136.995 40 160 40L160 88C146.197 88 132.685 91.9674 121.074 99.4297C109.462 106.892 100.24 117.535 94.5065 130.09C88.7726 142.646 86.7685 156.584 88.7329 170.247C90.6972 183.909 96.5472 196.719 105.586 207.15L69.31 238.583Z" fill="#54EB63"/>
<path d="M23.7593 97.0521V95.3568L28.01 88.6601H29.4717V91.0067H28.6066L25.9269 95.2475V95.327H31.9674V97.0521H23.7593ZM28.6464 98.8419V96.5351L28.6861 95.7844V88.6601H30.7046V98.8419H28.6464ZM37.3939 99.0656C36.5388 99.0623 35.803 98.8519 35.1865 98.4342C34.5733 98.0166 34.101 97.4118 33.7696 96.6196C33.4415 95.8275 33.2791 94.8746 33.2824 93.761C33.2824 92.6506 33.4464 91.7044 33.7746 90.9222C34.106 90.14 34.5783 89.545 35.1915 89.1374C35.808 88.7264 36.5421 88.5209 37.3939 88.5209C38.2457 88.5209 38.9782 88.7264 39.5913 89.1374C40.2078 89.5484 40.6818 90.1449 41.0132 90.9271C41.3446 91.706 41.5087 92.6506 41.5054 93.761C41.5054 94.8779 41.3397 95.8324 41.0082 96.6246C40.6801 97.4167 40.2095 98.0216 39.5963 98.4392C38.9831 98.8568 38.249 99.0656 37.3939 99.0656ZM37.3939 97.2808C37.9772 97.2808 38.4429 96.9875 38.7909 96.4009C39.1389 95.8142 39.3113 94.9342 39.308 93.761C39.308 92.9887 39.2284 92.3457 39.0693 91.832C38.9135 91.3182 38.6915 90.9321 38.4031 90.6736C38.1181 90.4151 37.7817 90.2858 37.3939 90.2858C36.8139 90.2858 36.3499 90.5758 36.0018 91.1558C35.6538 91.7359 35.4782 92.6042 35.4749 93.761C35.4749 94.5431 35.5527 95.1961 35.7085 95.7198C35.8676 96.2401 36.0913 96.6312 36.3797 96.8931C36.668 97.1516 37.0061 97.2808 37.3939 97.2808Z" fill="#323232"/>
<path d="M18.7676 115.961C18.2051 115.961 17.7036 115.865 17.2633 115.671C16.8258 115.478 16.4778 115.21 16.2193 114.866C15.9636 114.519 15.8244 114.117 15.8016 113.66H16.8755C16.8982 113.941 16.9948 114.184 17.1653 114.389C17.3357 114.59 17.5587 114.747 17.8343 114.858C18.1099 114.968 18.4153 115.024 18.7505 115.024C19.1255 115.024 19.4579 114.958 19.7477 114.828C20.0374 114.697 20.2647 114.515 20.4295 114.282C20.5943 114.049 20.6766 113.779 20.6766 113.473C20.6766 113.152 20.5971 112.869 20.438 112.625C20.2789 112.377 20.046 112.184 19.7391 112.045C19.4323 111.906 19.0573 111.836 18.6141 111.836H17.9153V110.899H18.6141C18.9607 110.899 19.2647 110.836 19.5261 110.711C19.7903 110.586 19.9962 110.41 20.144 110.183C20.2945 109.956 20.3698 109.689 20.3698 109.382C20.3698 109.086 20.3045 108.829 20.1738 108.61C20.0431 108.392 19.8585 108.221 19.6198 108.099C19.384 107.977 19.1056 107.916 18.7846 107.916C18.4835 107.916 18.1994 107.971 17.9323 108.082C17.6681 108.19 17.4522 108.348 17.2846 108.555C17.117 108.76 17.0261 109.007 17.0119 109.296H15.9891C16.0062 108.839 16.144 108.439 16.4025 108.095C16.661 107.748 16.9991 107.478 17.4167 107.285C17.8372 107.092 18.2988 106.995 18.8016 106.995C19.3414 106.995 19.8045 107.105 20.1909 107.323C20.5772 107.539 20.8741 107.825 21.0815 108.18C21.2889 108.535 21.3926 108.919 21.3926 109.331C21.3926 109.822 21.2633 110.241 21.0048 110.588C20.7491 110.934 20.4011 111.174 19.9607 111.308V111.376C20.5119 111.467 20.9423 111.701 21.2519 112.079C21.5616 112.454 21.7164 112.919 21.7164 113.473C21.7164 113.947 21.5872 114.373 21.3286 114.751C21.073 115.126 20.7235 115.421 20.2803 115.637C19.8372 115.853 19.3329 115.961 18.7676 115.961ZM26.357 115.961C25.9991 115.956 25.6411 115.887 25.2832 115.757C24.9252 115.626 24.5985 115.406 24.3031 115.096C24.0076 114.784 23.7704 114.362 23.5914 113.831C23.4124 113.296 23.323 112.626 23.323 111.819C23.323 111.046 23.3954 110.362 23.5403 109.765C23.6852 109.166 23.8954 108.662 24.171 108.252C24.4465 107.84 24.7789 107.528 25.1681 107.315C25.5602 107.102 26.0019 106.995 26.4934 106.995C26.982 106.995 27.4167 107.093 27.7974 107.289C28.1809 107.483 28.4934 107.752 28.7349 108.099C28.9764 108.446 29.1326 108.845 29.2036 109.296H28.1639C28.0673 108.904 27.8798 108.579 27.6014 108.321C27.323 108.062 26.9536 107.933 26.4934 107.933C25.8173 107.933 25.2846 108.227 24.8954 108.815C24.509 109.403 24.3144 110.228 24.3116 111.291H24.3798C24.5389 111.049 24.7278 110.843 24.9465 110.673C25.1681 110.5 25.4124 110.366 25.6795 110.272C25.9465 110.179 26.2292 110.132 26.5275 110.132C27.0275 110.132 27.4849 110.257 27.8997 110.507C28.3144 110.754 28.6468 111.096 28.8968 111.534C29.1468 111.968 29.2718 112.467 29.2718 113.029C29.2718 113.569 29.1511 114.064 28.9096 114.512C28.6681 114.958 28.3286 115.314 27.8911 115.578C27.4565 115.839 26.9451 115.967 26.357 115.961ZM26.357 115.024C26.715 115.024 27.036 114.934 27.3201 114.755C27.607 114.576 27.8329 114.336 27.9977 114.035C28.1653 113.734 28.2491 113.399 28.2491 113.029C28.2491 112.669 28.1681 112.34 28.0062 112.045C27.8471 111.747 27.6269 111.51 27.3457 111.333C27.0673 111.157 26.7491 111.069 26.3911 111.069C26.1212 111.069 25.8698 111.123 25.6369 111.231C25.4039 111.336 25.1994 111.481 25.0232 111.666C24.8499 111.85 24.7136 112.062 24.6141 112.301C24.5147 112.537 24.465 112.785 24.465 113.046C24.465 113.393 24.546 113.717 24.7079 114.018C24.8727 114.319 25.0971 114.562 25.3812 114.747C25.6681 114.931 25.9934 115.024 26.357 115.024ZM31.2874 115.91C31.0772 115.91 30.8968 115.835 30.7462 115.684C30.5957 115.534 30.5204 115.353 30.5204 115.143C30.5204 114.933 30.5957 114.752 30.7462 114.602C30.8968 114.451 31.0772 114.376 31.2874 114.376C31.4977 114.376 31.6781 114.451 31.8286 114.602C31.9792 114.752 32.0545 114.933 32.0545 115.143C32.0545 115.282 32.019 115.41 31.948 115.527C31.8798 115.643 31.7874 115.737 31.671 115.808C31.5573 115.876 31.4295 115.91 31.2874 115.91ZM33.6376 114.052V113.183L37.4728 107.115H38.1035V108.461H37.6774L34.7796 113.046V113.115H39.9444V114.052H33.6376ZM37.7455 115.842V113.788V113.383V107.115H38.7512V115.842H37.7455ZM45.9902 114.206V113.745C45.9902 113.427 46.0556 113.136 46.1862 112.872C46.3198 112.605 46.5129 112.392 46.7658 112.233C47.0215 112.071 47.3311 111.99 47.6948 111.99C48.0641 111.99 48.3737 112.071 48.6237 112.233C48.8737 112.392 49.0627 112.605 49.1905 112.872C49.3183 113.136 49.3823 113.427 49.3823 113.745V114.206C49.3823 114.524 49.3169 114.816 49.1862 115.083C49.0584 115.348 48.8681 115.561 48.6152 115.723C48.3652 115.882 48.0584 115.961 47.6948 115.961C47.3254 115.961 47.0144 115.882 46.7615 115.723C46.5087 115.561 46.3169 115.348 46.1862 115.083C46.0556 114.816 45.9902 114.524 45.9902 114.206ZM46.8595 113.745V114.206C46.8595 114.47 46.922 114.707 47.047 114.917C47.172 115.125 47.3879 115.228 47.6948 115.228C47.9931 115.228 48.2033 115.125 48.3254 114.917C48.4504 114.707 48.5129 114.47 48.5129 114.206V113.745C48.5129 113.481 48.4533 113.245 48.334 113.038C48.2146 112.828 48.0016 112.723 47.6948 112.723C47.3965 112.723 47.182 112.828 47.0513 113.038C46.9235 113.245 46.8595 113.481 46.8595 113.745ZM41.6436 109.211V108.751C41.6436 108.433 41.709 108.142 41.8396 107.877C41.9732 107.61 42.1663 107.397 42.4192 107.238C42.6749 107.076 42.9845 106.995 43.3482 106.995C43.7175 106.995 44.0271 107.076 44.2771 107.238C44.5271 107.397 44.7161 107.61 44.8439 107.877C44.9717 108.142 45.0357 108.433 45.0357 108.751V109.211C45.0357 109.529 44.9703 109.822 44.8396 110.089C44.7118 110.353 44.5215 110.566 44.2686 110.728C44.0186 110.887 43.7118 110.967 43.3482 110.967C42.9788 110.967 42.6678 110.887 42.4149 110.728C42.1621 110.566 41.9703 110.353 41.8396 110.089C41.709 109.822 41.6436 109.529 41.6436 109.211ZM42.5129 108.751V109.211C42.5129 109.475 42.5754 109.713 42.7004 109.923C42.8254 110.13 43.0413 110.234 43.3482 110.234C43.6465 110.234 43.8567 110.13 43.9788 109.923C44.1038 109.713 44.1663 109.475 44.1663 109.211V108.751C44.1663 108.487 44.1067 108.251 43.9874 108.044C43.8681 107.833 43.655 107.728 43.3482 107.728C43.0499 107.728 42.8354 107.833 42.7047 108.044C42.5769 108.251 42.5129 108.487 42.5129 108.751ZM41.9675 115.842L47.9675 107.115H48.9391L42.9391 115.842H41.9675Z" fill="#3F8AE2"/>
</g>
<defs>
<clipPath id="clip0_268_54">
<rect width="320" height="320" fill="white"/>
</clipPath>
</defs>
</svg>
